<svg width="536" height="371" viewBox="0 0 536 371" fill="none" xmlns="http://www.w3.org/2000/svg">
<path d="M169 39.5H104V166.5L65 182L64 39.5H0V0H169V39.5Z" fill="white"/>
<path d="M368 39.5V0H536V91L407 114.5V168.5L368 182V79L496.5 60.5V39.5H368Z" fill="white"/>
<path d="M183.5 370.5V135.5L352.283 189V238.5L222.5 191V314L313 281.5L238 250H352.283V306L183.5 370.5Z" fill="white"/>
<path fill-rule="evenodd" clip-rule="evenodd" d="M183.5 0H352.283V182L183.5 130V0ZM222.5 99.5V39H313V125.5L222.5 99.5Z" fill="white"/>
</svg>
